<?xml version="1.0" encoding="utf-8"?>
<!-- Generator: Adobe Illustrator 26.1.0, SVG Export Plug-In . SVG Version: 6.00 Build 0)  -->
<svg version="1.1" id="Capa_1" xmlns="http://www.w3.org/2000/svg" xmlns:xlink="http://www.w3.org/1999/xlink" x="0px" y="0px"
	 viewBox="0 0 120 120" style="enable-background:new 0 0 120 120;" xml:space="preserve">
<style type="text/css">
	.st0{fill:#FFFFFF;}
</style>
<path class="st0" d="M56.4,34c-3,0-14.3,0.1-17.4,0c-0.9-0.1-2.3,0.1-2.5-0.7c-0.3-1,0.4-1.8,0.9-2.4c4.2-5.5,8.5-11,12.8-16.5
	c3.3-4.2,6.5-8.5,9.9-12.6c0.5-0.7,1.2-2.1,2.3-1.6c1.1,0.2,0.8,1.8,0.8,2.6C63,8.4,62.1,22,62,23.4c1.4,0,12.6-0.1,16.8,0.1
	c1.1,0,3,0.1,3.2,0.8s-0.8,2-1.4,2.8C76.2,32.7,60.4,52.3,57,56.3c-0.5,0.7-1.4,1.9-2.4,1.3c-0.8-0.4-0.6-1.7-0.5-2.5
	C54.7,48.3,55.5,41.4,56.4,34z"/>
<path class="st0" d="M53.1,41.3h-2.5c-6.7,0-9.5,2.7-9.5,9.3v22.7c0,0.5-0.1,0.9-0.1,1.4h-9.4c-2,0-4.5,0.3-5.8,3.1s0.2,5,1.4,6.4
	c5.3,6.2,10.5,12.3,15.8,18.5c4.2,4.9,8.3,9.8,12.5,14.7c1.1,1.5,2.7,2.4,4.6,2.5c1.4,0,2.7-0.6,3.6-1.6v0.1l0.7-0.8
	c4.3-5,8.4-9.9,12.5-14.8l15.8-18.5c1.2-1.4,2.6-3.6,1.4-6.4s-3.8-3.1-5.6-3.1H79c0-0.5-0.1-1-0.1-1.4V50.7c0-5.7-2-8.5-6.7-9.1
	l-4.7,6.2h1.7c3.1,0,3.2,0,3.2,3.5v24.5c0,4.6,0.8,5.4,5.6,5.4h9l-10.2,12l-13.9,16.3l-2.8,3.3L47,97.5L33.2,81.2h9
	c4.7,0,5.5-0.8,5.6-5.4V51.2c0-3.4,0-3.4,2.7-3.4h2L53.1,41.3z"/>
</svg>
