<?xml version="1.0" encoding="utf-8"?>
<!-- Generator: Adobe Illustrator 26.1.0, SVG Export Plug-In . SVG Version: 6.00 Build 0)  -->
<svg version="1.1" id="Capa_1" xmlns="http://www.w3.org/2000/svg" xmlns:xlink="http://www.w3.org/1999/xlink" x="0px" y="0px"
	 viewBox="0 0 120 120" style="enable-background:new 0 0 120 120;" xml:space="preserve">
<style type="text/css">
	.st0{fill:#FFFFFF;}
</style>
<path class="st0" d="M36.4,44.4C31,45.9,26,47,21.3,48.8c-4,1.5-7.7,3.6-11.2,6.1c-4.3,3.2-4.2,6.7-0.2,10.1c2.6,2,5.4,3.9,8.2,5.5
	c0.2-0.2,0.4-0.4,0.5-0.6c-0.8-1.5-1.6-2.9-2.3-4.4c-1.1-2.2-0.6-4.3,1.4-5.2s3.7-0.2,4.8,1.9c2.2,4,4.4,8.1,6.5,12.2
	c1.4,2.6,0.7,4.4-2,5.7c-4.1,1.8-8.3,3.7-12.4,5.4c-2.3,1-4.4,0.3-5.2-1.5s0-3.8,2.3-4.9c1.4-0.6,2.7-1.2,4.5-2
	c-1-0.5-1.7-0.8-2.4-1.2c-3.3-2.2-7-4.1-9.7-6.8c-5.8-5.6-5.6-12.6,0-18.5c3.6-3.7,8.1-6.5,13.1-8c6.5-2.2,13.1-3.9,20.1-5.9
	c0.8-3.3,1.6-7.3,2.6-11.2c1.9-7.1,4.4-14,9.2-19.8c6.7-7.8,15.1-7.9,21.8,0c2.4,2.8,4.2,6.2,6.3,9.5c0.7-1.4,1.3-2.9,2.1-4.3
	c1.2-2.5,3.1-3.3,5.1-2.3c2,1,2.4,3,1.4,5.2c-1.9,4.1-3.8,8.2-5.8,12.3c-1.3,2.7-3.1,3.3-5.7,1.9c-4-2.2-8-4.5-12-6.8
	c-2.1-1.2-2.7-3.1-1.8-4.9s3-2.4,5.2-1.2c1.2,0.6,2.3,1.3,3.5,2c-0.4-3.5-4.8-9.2-8-9.8c-1.4-0.2-2.9,0.1-4.2,0.8
	c-1.3,0.8-2.4,1.8-3.2,3.1c-5.3,7.4-7.4,16-9.1,25.1c2.7-0.2,5-0.3,7.4-0.4c16.9-0.8,33.6,0.4,49.6,6.4c4.7,1.8,9,4.2,12.9,7.3
	c7.5,6,7.2,14.6,0,20.9c-6.2,5.5-13.9,8-21.7,10c-11.3,2.8-22.9,4.1-34.5,3.8c-2.6,0-4.3-1.5-4.3-3.6s1.7-3.4,4.4-3.4
	c13.4,0,26.7-1.1,39.4-5.7c4.2-1.5,8.2-3.7,11.9-6.4c4.6-3.4,4.4-7,0-10.7c-5.2-4.5-11.7-6.5-18.2-8.2c-15.7-4-31.6-4.5-48-2.8
	c-0.3,3.3-0.6,6.7-0.7,10c-0.6,15.5,0.5,30.8,5.9,45.4c1.5,3.9,3.6,7.7,6.1,11c3.2,4.2,6.4,4,10,0.2c4-4.2,5.8-9.5,7.6-14.9
	c1.2-3.5,2.5-4.8,4.9-4c2.3,0.8,3,2.5,1.9,6c-1.9,6.2-4.3,12.1-8.5,17c-6.7,7.7-15,7.7-21.6-0.1c-5.3-6.2-7.8-13.8-9.8-21.5
	C35.5,77.2,34.8,61.4,36.4,44.4z"/>
</svg>
