<?xml version="1.0" encoding="utf-8"?>
<!-- Generator: Adobe Illustrator 26.1.0, SVG Export Plug-In . SVG Version: 6.00 Build 0)  -->
<svg version="1.1" id="Capa_1" xmlns="http://www.w3.org/2000/svg" xmlns:xlink="http://www.w3.org/1999/xlink" x="0px" y="0px"
	 viewBox="0 0 120 120" style="enable-background:new 0 0 120 120;" xml:space="preserve">
<style type="text/css">
	.st0{fill:#FFFFFF;}
</style>
<g>
	<path class="st0" d="M1.4,100c0.1,3.7,1.4,5.6,4,6.5c2.7,0.9,5,0.1,6.8-2.1c4-5.1,9-8.6,15.4-9.9c11-2.2,20.3,0.8,27.3,9.6
		c6.3,7.9,14.1,13.4,24.1,15.1c15.4,2.6,28.2-2.2,38.1-14.4c2.3-2.9,1.8-6.5-0.8-8.6c-2.7-2-6.1-1.5-8.5,1.3
		c-12.3,14.4-31.4,14.1-43.3-0.6c-16-19.9-45.1-20.2-60.9-0.8C2.5,97.6,1.9,99.3,1.4,100z"/>
	<path class="st0" d="M1.5,57.5c0,3.5,1.3,5.4,3.9,6.3c2.7,1,5,0.2,6.8-2c3.4-4.3,7.6-7.5,12.8-9.3c11-3.7,22.7-0.3,29.9,8.9
		c7.3,9.3,16.5,14.9,28.4,15.8c14,1,25.3-4.2,33.9-15.1c2.2-2.7,1.7-6.4-0.9-8.3c-2.7-2.1-6.2-1.6-8.7,1.4
		c-8.5,10.2-21.5,13.5-32.8,7.7c-3.8-2-7.4-5.1-10.2-8.4c-14.7-17.9-39.9-20.3-57-5.1c-1.7,1.5-3.2,3.2-4.5,4.9
		C2.2,55.4,1.8,56.8,1.5,57.5z"/>
	<path class="st0" d="M1.4,18.1c0.1,3.7,1.5,5.6,4,6.5c2.7,0.9,5,0.1,6.7-2.1c4-5.1,9-8.6,15.4-9.9c11-2.2,20.3,0.8,27.3,9.6
		c6.2,7.7,13.7,13.2,23.6,15c15.4,2.9,28.2-1.8,38.3-13.8c2.6-3,2.3-6.6-0.3-8.8c-2.7-2.3-6.3-1.7-8.9,1.4
		C97.6,27.9,81,29.8,69.3,20.2c-2.2-1.8-4-4.2-5.9-6.4C47.5-4.8,18.9-4.6,3.5,14.4C2.5,15.7,1.9,17.3,1.4,18.1z"/>
</g>
</svg>
