<?xml version="1.0" encoding="utf-8"?>
<!-- Generator: Adobe Illustrator 26.1.0, SVG Export Plug-In . SVG Version: 6.00 Build 0)  -->
<svg version="1.1" id="Capa_1" xmlns="http://www.w3.org/2000/svg" xmlns:xlink="http://www.w3.org/1999/xlink" x="0px" y="0px"
	 viewBox="0 0 120 120" style="enable-background:new 0 0 120 120;" xml:space="preserve">
<style type="text/css">
	.st0{fill:#FFFFFF;}
</style>
<g>
	<g>
		<path class="st0" d="M54.6,9c0.6-7,1.9-9,5.4-9c3.5,0,4.8,2,5.4,8.9c0.7-0.3,1.3-0.5,1.9-0.8c2.5-0.9,5.2,0.1,6.4,2.4
			c1.3,2.4,0.7,5.2-1.7,6.8c-0.6,0.5-1.3,0.8-2,1.2c-5.4,3.1-5.4,3.1-4.9,9.3c0.2,1.9,3.8,3.9,5.5,3.1c0.1,0,0.1-0.1,0.2-0.1
			c5.4-2.9,5.4-2.9,5.4-9c0-0.8,0-1.6,0.1-2.3C76.7,17,79,15,81.5,15c2.5,0,4.7,1.8,5.2,4.2c0.1,0.7,0.1,1.4,0.2,2.3
			c3.7-2,7.5-4.8,10.6,0.3c1.8,2.9,0.6,4.8-5.1,9c0.5,0.4,1,0.7,1.5,1.1c2.2,1.8,2.6,4.6,1.2,6.9c-1.4,2.3-4.3,3.1-6.8,1.9
			c-1.9-0.9-3.6-2.2-5.5-3.1c-0.7-0.3-1.7-0.3-2.5,0c-0.9,0.3-1.8,1-2.6,1.5c-2.9,1.7-3.3,2.4-2.8,5.8c0.1,0.5,0.5,0.9,0.8,1.3
			c0.1,0.1,0.3,0.1,0.4,0.2c5.2,3.3,5.2,3.3,10.4,0.3c0.5-0.3,0.9-0.6,1.4-0.8c2.7-1.4,5.7-0.7,7.2,1.7c1.5,2.5,0.9,5.3-1.6,7.2
			c-0.3,0.2-0.6,0.4-1.3,0.9c1.2,0.7,2.3,1.3,3.3,2c2.5,1.6,3.4,4.6,2,7.1c-1.4,2.6-4.5,3.4-7.3,2c-1-0.5-2-1.1-3.3-1.8
			c-0.1,0.9-0.1,1.6-0.2,2.3c-0.4,2.5-2.8,4.4-5.4,4.3c-2.6-0.1-4.8-2.1-5-4.7c-0.1-2.2,0.1-4.4-0.1-6.6c-0.1-0.8-0.6-1.6-1.2-2.2
			c-0.7-0.7-1.8-0.9-2.6-1.6c-2-1.7-3.9-1.6-5.8,0.1c-0.6,0.6-1.4,1.5-1.4,2.3c-0.3,6-0.2,5.9,5.1,9.2c1.5,0.9,2.9,2.4,3.7,3.9
			c1,1.8,0.2,3.7-1.2,5.1c-1.4,1.4-3.2,1.9-5.2,1.4c-0.7-0.2-1.4-0.6-2.3-0.9c-0.4,2.8,0.6,6-2.2,7.8c-1,0.6-2.3,1.1-3.5,1.1
			c-3.4,0-4.5-2-5.1-8.9c-0.6,0.2-1.2,0.4-1.7,0.6c-2.6,1-5.3,0-6.6-2.3c-1.3-2.5-0.6-5.4,1.8-7c1.6-1.1,3.3-2,5.1-2.9
			c1.2-0.6,1.8-1.4,1.6-2.7c-0.1-1.2-0.2-2.4,0-3.5c0.3-1.8-0.6-2.7-2.1-3.7c-1.7-1.1-2.9-0.8-4.6,0c-3.5,1.6-5.2,3.9-4.4,7.7
			c0.1,0.7,0,1.4,0,2.1c-0.1,3.2-2.2,5.5-5.1,5.6c-2.8,0.1-5-2-5.3-5.1c0-0.4-0.1-0.8-0.1-1.4c-0.8,0.4-1.5,0.7-2.2,1.1
			c-3.7,2.1-6.7,1.7-8.4-1.2c-1.7-2.9-0.6-5.8,3-7.9c0.7-0.4,1.3-0.8,2.1-1.3c-0.6-0.4-0.9-0.6-1.3-0.9c-2.5-1.9-3.1-4.8-1.5-7.2
			c1.5-2.4,4.5-3.1,7.2-1.6c1.7,0.9,3.2,2,4.9,2.7c0.8,0.4,2,0.3,2.9,0c1.1-0.3,2-1.2,3.1-1.7c1.7-0.7,2.2-1.8,2.2-3.6
			c0-2-0.7-2.9-2.3-4.1c-3.1-2.3-5.9-2.5-8.9,0.1c-0.6,0.5-1.5,0.9-2.2,1.3c-2.6,1.3-5.5,0.5-7-1.9c-1.5-2.4-0.9-5.2,1.5-7.1
			c0.4-0.3,0.8-0.7,1.3-1c-5.6-3.8-6.8-5.9-5.1-9c1.7-3.1,3.9-3.2,10.6-0.3c0.1-0.6,0.1-1.2,0.2-1.8c0.4-2.7,2.6-4.7,5.3-4.6
			c2.7,0.1,4.9,2.1,5.1,4.9c0,0.3,0.1,0.6,0,0.9c-1.2,5.5,1.2,8.8,6.3,10.6c0.5,0.2,1.1,0.5,1.4,0.9c0.4,0.7,0.8,1.7,0.5,2.2
			c-0.3,0.5-1.6,0.9-2.1,0.7c-3-1.5-5.9-3.2-8.7-5c-0.5-0.3-0.7-1.4-0.7-2.1c-0.1-2.3,0-4.7,0-7c0-1.3-0.3-2.6-1.9-2.3
			c-0.7,0.1-1.4,1.4-1.6,2.3c-0.3,1,0,2.2-0.1,3.3c-0.1,2-1.2,2.7-2.9,1.8c-1.7-0.8-3.3-1.8-4.9-2.8c-1.2-0.7-2.4-1.3-3.2,0.2
			c-0.9,1.6,0.4,2.2,1.5,2.9c1.6,0.9,3.1,1.8,4.7,2.7c1.8,1.1,1.8,2.4,0,3.6c-0.8,0.6-1.7,1.1-2.6,1.5c-1.1,0.6-2.1,1.4-1.4,2.8
			c0.7,1.4,1.9,1,3,0.3c1.9-1.1,3.7-2.4,5.7-3.2c1-0.4,2.6-0.5,3.6-0.1c2.4,1.1,4.7,2.5,6.9,3.9c0.7,0.5,1.5,1.3,1.5,2.1
			c0.2,2.2,0.2,4.4,0,6.6c0,0.7-0.7,1.3-1.1,1.9c-0.2,0.3-0.6,0.4-1,0.6c-2.6,1.4-5.2,4-7.8,4c-2.6,0.1-5.2-2.3-7.8-3.7
			c-1.1-0.6-2.3-1.1-3.1,0.3c-0.8,1.3,0.1,2.2,1.3,2.8c0.8,0.4,1.5,0.8,2.2,1.3c2.4,1.5,2.4,2.7-0.1,4.2c-1.5,0.9-3.2,1.7-4.6,2.8
			c-0.6,0.5-0.8,1.6-1.1,2.4c0.9,0.2,2,0.8,2.8,0.5c1.8-0.7,3.4-1.9,5.1-2.8c2.1-1.1,3.1-0.5,3.2,1.8c0,1.1-0.2,2.3,0.1,3.3
			c0.3,0.9,1.1,1.5,1.8,2.3c0.6-0.8,1.6-1.5,1.7-2.3c0.2-2.3-0.1-4.7,0.2-7c0.1-1,0.8-2.2,1.6-2.8c2.2-1.5,4.7-2.8,7.1-4.1
			c0.6-0.3,1.6-0.6,2.1-0.4c2.2,1.1,4.3,2.3,6.3,3.6c0.5,0.3,0.8,1.2,0.8,1.8c0.1,3,0.1,5.9,0,8.9c0,0.8-0.8,1.9-1.5,2.3
			c-2,1.4-4.2,2.4-6.2,3.8c-0.6,0.5-0.7,1.7-1,2.6c0.9,0.1,1.9,0.5,2.7,0.2c1.1-0.3,2-1.1,3.1-1.7c1.8-0.9,2.9-0.3,3,1.7
			c0.1,1.9,0,3.9,0,5.9c0,1.3,0.4,2.6,1.9,2.3c0.7-0.1,1.5-1.4,1.6-2.3c0.2-1.9,0-3.9,0.1-5.8c0.1-2,1.1-2.6,2.9-1.8
			c1.1,0.5,2,1.4,3.1,1.6c0.9,0.2,1.9-0.2,2.8-0.4c-0.4-0.8-0.5-2-1.1-2.5c-1.9-1.3-4.1-2.3-6-3.6c-0.8-0.6-1.4-1.9-1.7-2.9
			c-0.3-0.9-0.1-2-0.1-3c0-7.3,0-7.4,6.5-10.5c0.7-0.3,1.7-0.1,2.6-0.1c0.1,0,0.3,0.1,0.4,0.2c2.6,1.5,6.2,2.5,7.6,4.8
			c1.4,2.2,0.6,5.8,1,8.8c0.1,0.9,1,2.4,1.7,2.5c1.7,0.3,1.9-1.3,1.8-2.6c-0.5-5.9,0.9-6.4,5.7-3.2c0.9,0.6,1.8,1.3,2.9,1.6
			c0.8,0.2,1.7-0.3,2.6-0.5c-0.3-0.8-0.3-1.9-0.9-2.3c-1.6-1.2-3.3-2-5-3c-2.3-1.4-2.3-2.6,0.1-4c0.9-0.6,2-1,2.8-1.7
			c0.5-0.5,0.5-1.6,0.8-2.4c-0.8-0.2-1.8-0.8-2.4-0.5c-2.2,1-4.3,2.3-6.3,3.6c-1.3,0.8-2.4,0.9-3.7,0c-2.2-1.4-4.6-2.6-6.9-4
			c-0.7-0.4-1.4-1.4-1.5-2.1c-0.2-2.2-0.2-4.4,0-6.5c0.1-0.8,0.8-1.7,1.5-2.1c2.3-1.5,4.6-2.9,7.1-4.1c0.9-0.4,2.3-0.4,3.2,0.1
			c2.1,1,4,2.4,6.1,3.4c0.7,0.3,1.9-0.2,2.8-0.3c-0.4-0.9-0.6-2-1.2-2.6c-0.7-0.8-1.9-1.1-2.8-1.7c-1.8-1.2-1.8-2.4,0-3.6
			c1.7-1,3.5-1.8,5-3c0.7-0.5,1.4-1.9,1.1-2.5c-0.5-1.4-1.8-1.1-2.9-0.4c-1.7,1-3.3,2-5.1,2.9c-1.8,0.9-2.9,0.3-3-1.7
			c-0.1-1.2,0.2-2.6-0.1-3.7c-0.2-0.8-1.2-1.3-1.8-1.9c-0.6,0.6-1.5,1.2-1.6,1.9c-0.2,2.4,0.1,4.9-0.2,7.3c-0.1,1-0.8,2.3-1.6,2.9
			c-2.2,1.5-4.5,2.8-6.9,4c-0.9,0.4-2.3,0.4-3.2,0c-6.2-3.2-5.9-3.2-6.3-10.2c-0.2-3.9,0.9-6.4,4.5-7.8c1.3-0.5,2.6-1.2,3.6-2.2
			c0.5-0.5,0.5-1.6,0.8-2.4c-0.8-0.2-1.7-0.7-2.4-0.5c-1.2,0.3-2.2,1.2-3.3,1.8c-1.9,1-3,0.4-3.1-1.7c-0.1-1.8,0-3.6,0-5.4
			c0-1.3,0-2.7-1.7-2.8c-1.7,0-1.8,1.3-1.8,2.7c0,1.7,0,3.4,0,5.2c-0.1,2.6-1.1,3.2-3.4,1.9c-1-0.5-1.8-1.3-2.9-1.6
			c-0.7-0.2-1.6,0.2-2.5,0.4c0.3,0.9,0.3,2.1,0.8,2.5c2,1.4,4.2,2.4,6.2,3.8c0.8,0.6,1.6,1.8,1.7,2.7c0.2,2.8,0.2,5.6,0,8.4
			c-0.1,0.8-1.1,1.5-1.7,2.3c-0.6-0.8-1.6-1.5-1.6-2.3c-0.3-2.6,0.7-5.7-0.5-7.8c-1.1-2-4.1-2.8-6.3-4.2c-2.5-1.6-3.2-4.5-1.8-7
			c1.3-2.4,4-3.3,6.6-2.3C53.4,8.5,53.9,8.7,54.6,9z"/>
		<path class="st0" d="M60,120c-7.5,0-12.9-7.9-9.6-14.7c2.3-4.8,5.2-9.4,8-14c0.9-1.6,2.4-1.6,3.3,0c2.7,4.6,5.7,9.2,8,14
			C72.9,112.1,67.6,120,60,120z M60,95.4c-2.3,4-4.4,7.5-6.3,11.1c-1.5,3-0.7,6.3,1.9,8.4c2.4,2,6,2.1,8.5,0.3
			c2.6-1.9,3.9-5.4,2.4-8.3C64.6,103.1,62.4,99.5,60,95.4z"/>
		<path class="st0" d="M37.8,90.3c-0.3,4.5-2.9,8.3-6.9,9.9c-3.9,1.5-8.5,0.5-11.4-2.5c-3-3.2-4-7.8-1.9-11.7
			c2.4-4.6,5.1-9.1,7.8-13.6c1.1-1.8,2.5-1.8,3.6,0.1c2.6,4.4,5.2,8.7,7.6,13.2C37.2,87.1,37.4,88.8,37.8,90.3z M27.1,76.4
			c-2.3,4-4.4,7.4-6.3,11c-1.5,2.9-0.7,6.5,1.8,8.5c2.6,2.1,6.1,2.2,8.7,0.2c2.6-2,3.7-5.4,2.2-8.4C31.6,84,29.4,80.4,27.1,76.4z"/>
		<path class="st0" d="M82.1,90.2c0.6-1.7,1-3.6,1.9-5.2c2.2-4.1,4.6-8.1,7-12.2c1.3-2.3,2.6-2.3,3.9-0.1c2.5,4.3,5.1,8.6,7.5,13
			c2.1,4,1.4,8.7-1.7,11.9c-2.9,3.2-7.6,4.2-11.6,2.6C85,98.6,82.4,94.8,82.1,90.2z M93,76.4c-2.2,3.8-4.3,7.3-6.2,11
			c-1.6,3-0.7,6.5,1.9,8.6c2.6,2,6.1,2,8.7,0c2.6-2,3.4-5.7,1.9-8.7C97.3,83.7,95.2,80.2,93,76.4z"/>
		<path class="st0" d="M51.8,43.2c0.4-1.6,0.2-3.8,1.1-4.6c2-1.7,4.7-3.7,7-3.7c2.4,0,5.2,1.8,7,3.7c1.1,1.2,0.8,3.9,0.9,5.9
			c0,1.2-0.1,3.1-0.8,3.6c-2.2,1.6-4.7,3.7-7.1,3.6c-2.4,0-5-2-7-3.8C51.9,47.1,52.1,44.9,51.8,43.2z M55.7,43.2c0,2.3,2.4,5,4.3,5
			c1.9-0.1,4.2-2.6,4.2-4.6c0-2.4-2.1-5-4.2-5.1C58.2,38.4,55.7,41.1,55.7,43.2z"/>
	</g>
</g>
</svg>
