<?xml version="1.0" encoding="utf-8"?>
<!-- Generator: Adobe Illustrator 26.1.0, SVG Export Plug-In . SVG Version: 6.00 Build 0)  -->
<svg version="1.1" id="Capa_1" xmlns="http://www.w3.org/2000/svg" xmlns:xlink="http://www.w3.org/1999/xlink" x="0px" y="0px"
	 viewBox="0 0 120 120" style="enable-background:new 0 0 120 120;" xml:space="preserve">
<style type="text/css">
	.st0{fill:#FFFFFF;}
</style>
<g>
	<g>
		<g>
			<path class="st0" d="M60.9,1.5c0.9,0,1.5,0.3,1.9,0.8c0.4,0.5,0.5,1.3,0.3,2.2c-0.9,3.7-1.9,7.4-2.8,11l-0.8,3.1
				c-3.4,13-0.4,24.6,9,34.4c13.3,13.9,14.8,34.5,3.4,50c-2.1,2.9-4.3,5.8-6.4,8.6c-1.4,1.8-2.7,3.6-4.1,5.4c-1,1.3-1.6,1.5-2,1.5
				c-0.3,0-0.6-0.1-0.9-0.3c-1-0.5-1.5-1.1-1-3c0.3-1.2,0.7-2.5,1-3.7c1.1-4,2.2-8.1,2.9-12.3c2-11.5-1.1-21.7-9.4-30.3
				c-6.7-7-10.4-14.8-11.3-23.8c-1-9.4,1.2-18.1,6.6-25.9c3.4-5,7.1-9.9,10.7-14.7l1.3-1.7c0.4-0.5,1-0.9,1.4-1.2
				C60.8,1.6,60.8,1.6,60.9,1.5 M60.6,0c-0.1,0-0.1,0-0.2,0c-0.5,0.4-1.6,1-2.3,1.9c-4.1,5.4-8.2,10.9-12,16.5
				c-5.5,8.1-7.8,17.1-6.8,26.9c1,9.6,5.1,17.7,11.8,24.6c7.8,8.1,10.9,17.9,9,29c-0.9,5.4-2.5,10.6-3.9,15.9
				c-0.5,2.1-0.3,3.7,1.7,4.8c0.6,0.3,1.1,0.4,1.6,0.4c1.3,0,2.3-0.9,3.2-2.1c3.5-4.7,7-9.4,10.5-14.1c11.8-16.1,10.3-37.5-3.6-51.9
				c-9-9.4-12-20.4-8.6-33c1.2-4.7,2.5-9.3,3.6-14C65.2,2.2,63.7,0,60.6,0L60.6,0z"/>
		</g>
		<g>
			<path class="st0" d="M25,27.3c0.2,0,0.5,0,0.7,0.1c0.8,0.3,1.5,0.7,1.3,2.8l-0.4,2.4c-0.3,2-0.7,4.2-1.1,6.4
				c-1.7,10.2,1.1,19.3,8.3,26.9c12.2,12.8,13.3,30.4,3,44.7c-1.6,2.2-3.2,4.4-4.8,6.6c-0.9,1.2-1.5,1.2-1.8,1.2
				c-0.3,0-0.6-0.1-0.9-0.2c-0.9-0.4-1.4-1-1.2-2.6c0.2-1,0.3-2,0.5-3c0.3-1.9,0.6-3.8,0.9-5.8c1.4-9.8-1.5-18.4-8.4-25.7
				c-7.7-8-11-17.2-10-28c0.5-5.1,2-9.9,4.7-14.1c1.8-2.8,3.8-5.6,5.7-8.2c0.6-0.8,1.2-1.6,1.8-2.5C24.2,27.3,24.8,27.3,25,27.3
				 M25,25.8c-1.2,0-2.1,0.7-2.8,1.7c-2.5,3.6-5.1,7.1-7.5,10.8c-2.8,4.5-4.4,9.4-4.9,14.7c-1,11.3,2.5,21,10.4,29.2
				c6.5,6.8,9.3,15,8,24.4c-0.4,2.9-0.9,5.8-1.4,8.8c-0.3,1.9,0.2,3.4,2.1,4.2c0.5,0.2,1,0.3,1.5,0.3c1.2,0,2.2-0.7,3-1.8
				c1.6-2.2,3.2-4.4,4.8-6.6c10.7-14.9,9.5-33.3-3.1-46.6c-6.9-7.2-9.5-15.7-7.9-25.6c0.5-3.2,1-6.3,1.5-8.9
				c0.3-2.5-0.5-3.8-2.3-4.4C25.8,25.9,25.4,25.8,25,25.8L25,25.8z"/>
		</g>
		<g>
			<path class="st0" d="M90.1,1.5c0.3,0,0.6,0.1,0.9,0.2c0.9,0.4,1.4,1,1.1,2.9c-0.1,0.8-0.3,1.7-0.5,2.5c-0.5,2.5-0.9,5.1-1.3,7.7
				c-1.2,9.7,1.7,18.3,8.6,25.4c6.3,6.5,9.8,14.4,9.9,22.4c0,8.3-1.8,14.6-5.7,20.5c-1.3,1.9-2.7,3.9-4.1,5.8
				c-0.6,0.9-1.2,1.7-1.9,2.6c-0.8,1.2-1.4,1.3-1.8,1.3c-0.2,0-0.5-0.1-0.8-0.2c-0.9-0.4-1.5-0.9-1.2-2.6c0.2-1.1,0.3-2.1,0.5-3.2
				c0.3-2,0.7-4,0.9-6.1c1.2-9.7-1.7-18.3-8.7-25.6c-5.6-5.8-8.8-12.7-9.7-20.5c-0.9-8.1,1-15.7,5.5-22.6c1.3-2,2.8-4,4.2-6
				c0.8-1,1.5-2.1,2.2-3.2C89.2,1.5,89.9,1.5,90.1,1.5 M90.1,0c-1.2,0-2.2,0.8-3.1,2C84.9,5,82.6,8,80.6,11.2
				c-4.7,7.2-6.7,15-5.7,23.6c0.9,8.3,4.4,15.4,10.1,21.4c6.6,6.8,9.5,14.9,8.3,24.3c-0.4,3.1-1,6.2-1.4,9.2
				c-0.3,1.9,0.2,3.4,2.2,4.2c0.5,0.2,1,0.3,1.4,0.3c1.2,0,2.2-0.8,3-1.9c2-2.8,4.1-5.5,6-8.4c4-5.9,5.9-12.5,6-21.3
				c-0.1-8.1-3.5-16.5-10.3-23.5c-6.5-6.8-9.3-14.8-8.2-24.2c0.4-3.4,1.1-6.8,1.7-10.1c0.3-2,0-3.6-2-4.5C91.1,0.1,90.6,0,90.1,0
				L90.1,0z"/>
		</g>
	</g>
</g>
</svg>
