<?xml version="1.0" encoding="utf-8"?>
<!-- Generator: Adobe Illustrator 26.1.0, SVG Export Plug-In . SVG Version: 6.00 Build 0)  -->
<svg version="1.1" id="Capa_1" xmlns="http://www.w3.org/2000/svg" xmlns:xlink="http://www.w3.org/1999/xlink" x="0px" y="0px"
	 viewBox="0 0 120 120" style="enable-background:new 0 0 120 120;" xml:space="preserve">
<style type="text/css">
	.st0{fill:#FFFFFF;}
</style>
<g>
	<path class="st0" d="M43.7,61.4c0-1.5,0-2.5,0-3.4c0-10.4-0.1-20.9,0-31.3c0.1-6.5,5.6-10.4,11.5-8.4c3.5,1.1,5.7,4.1,5.7,8.2
		c0.1,4.2,0,8.4,0,12.6c8-1.1,10.6,0.1,12.9,5.8c2.8,0.2,5.6-0.3,7.9,0.6c2.2,0.9,3.8,3.2,6,5.1c2.2-0.9,5-1.3,7.9,0.2
		c2.7,1.4,4.6,3.7,4.6,6.8c0.2,9.5,1,19.1-1.6,28.5c-1.6,5.9-4.2,11.4-7.9,16.2c-1.8,2.3-2.6,4.6-2.4,7.4c0.1,2.6,0,5.2,0,7.8
		c0,1.9-0.9,2.8-2.8,2.8c-11.2,0-22.5,0-33.7,0c-1.9,0-2.8-0.9-2.7-2.8c0-3.7-0.1-7.3,0-11c0.1-2.8-0.8-5-3.1-6.4
		c-5.9-3.6-8.9-9.1-10.8-15.4c-1.7-5.3-4.3-9.8-9.5-12.3c-0.9-0.5-1.8-1.2-2.6-1.8c-3.9-2.9-4.9-7.6-2.5-11.9c2.2-4,6.5-5.9,10.9-4
		c3.4,1.5,6.5,3.7,9.7,5.6C41.9,60.4,42.5,60.7,43.7,61.4z M84.1,115.6c0-1.9,0-3.6,0-5.2c-0.1-4.1,1.1-7.6,3.4-11.2
		c2.9-4.5,5.4-9.5,7-14.6c2.8-8.6,1.6-17.7,1.6-26.6c0-2.5-2.1-4.1-4.5-4c-2.4,0-4.1,1.7-4.3,4.2c-0.1,2-0.1,3.9,0,5.9
		c0,1.6,0,3.3-2.1,3.4c-2.3,0-2.2-1.8-2.2-3.5c0-3.4,0-6.8,0-10.2c0-3.1-1.8-5-4.4-5c-2.6,0-4.3,1.9-4.3,5c0,3.7,0.1,7.3-0.1,11
		c-0.1,0.9-1.2,2.4-2,2.5c-1.6,0.3-2.2-1.1-2.2-2.6c0-4.6,0-9.1,0-13.7c0-1.4,0.1-2.9-0.1-4.3c-0.3-2.5-2.1-4.1-4.5-4.1
		c-2.4,0-4.1,1.7-4.3,4.2c-0.1,0.8,0,1.6,0,2.4c0,5.2,0.1,10.4-0.1,15.5c0,0.9-1.3,1.7-2,2.6c-0.7-0.8-1.6-1.6-2.2-2.5
		c-0.3-0.5-0.1-1.2-0.1-1.8c0-10.4,0-20.9,0-31.3c0-2,0.1-3.9-0.1-5.9c-0.2-2.3-1.8-3.7-4.1-3.8c-2.3-0.1-3.9,1.2-4.4,3.5
		c-0.2,0.9-0.1,2-0.1,2.9c0,11.8,0,23.6-0.1,35.3c0,1.2-0.4,3-1.2,3.4c-0.8,0.4-2.5-0.3-3.5-0.9c-3.9-2.3-7.7-4.9-11.5-7.3
		c-2.8-1.7-5.5-1.1-7.1,1.1c-1.6,2.4-1,5.1,1.8,7.1c0.9,0.7,1.9,1.4,2.9,2c5.1,2.9,8.2,7.2,9.8,12.8c1.6,5.7,4.2,10.7,9.5,14.1
		c3.7,2.4,5.4,6,5.1,10.5c-0.2,2.9,0,5.8,0,8.9C63.8,115.6,73.7,115.6,84.1,115.6z"/>
	<path class="st0" d="M52.3,0c17.6,0,30.4,16.8,25.8,33.9c-0.1,0.4-0.3,0.9-0.4,1.3c-0.6,1.4-1.3,2.8-3.1,2.2
		c-1.8-0.6-1.5-2.1-1.1-3.6c2.4-7.5,1.3-14.5-3.5-20.8C62.1,2.6,47,1.3,37.3,10.1c-9.6,8.7-9.8,23.7-0.5,32.7
		c1.2,1.2,3.7,2.4,1.8,4.5c-2,2.2-3.5-0.2-4.8-1.4c-7.9-7.4-10.2-18.7-6.1-29C31.8,6.5,41.3,0,52.3,0z"/>
	<path class="st0" d="M34.5,26.6C34.6,16.2,43.3,8.2,53.7,9C63.9,9.7,71.5,19.1,70,29.2c-0.1,0.6-0.1,1.4-0.5,1.8
		c-0.7,0.7-1.6,1.1-2.4,1.6c-0.6-0.9-1.5-1.7-1.6-2.7c-0.2-1.7,0.4-3.6,0.1-5.3c-1.1-7.6-7.4-12.1-15.3-11.2
		c-7,0.8-11.9,7-11.4,14.4c0.1,0.8,0.4,1.7,0.2,2.4c-0.2,0.8-0.9,2.1-1.4,2.1c-0.8,0-2.1-0.6-2.4-1.3C34.7,29.7,34.7,28.1,34.5,26.6
		z"/>
</g>
</svg>
