<?xml version="1.0" encoding="utf-8"?>
<!-- Generator: Adobe Illustrator 26.1.0, SVG Export Plug-In . SVG Version: 6.00 Build 0)  -->
<svg version="1.1" id="Capa_1" xmlns="http://www.w3.org/2000/svg" xmlns:xlink="http://www.w3.org/1999/xlink" x="0px" y="0px"
	 viewBox="0 0 120 120" style="enable-background:new 0 0 120 120;" xml:space="preserve">
<style type="text/css">
	.st0{fill:#FFFFFF;}
</style>
<g>
	<path class="st0" d="M58.4,119.9c-11.4,0-22.8-0.2-34.2,0.1c-5.9,0.1-11.1-3.1-12.3-10.5C9.8,96.5,7.4,83.7,5.1,70.8
		c-0.5-2.5-0.9-5.1-1.4-7.6c-0.7-4,2.3-7.5,6.4-7.5c4.6,0,9.2,0,13.8,0c5.1,0,9.2,3.2,10.5,8.2c0.4,1.3,0.7,2.7,1,4
		c0.8,3,3.1,4.9,6.2,4.9c11.2,0,22.4,0,33.7,0c3.1,0,5.4-1.9,6.2-4.9c0.4-1.4,0.7-2.8,1.1-4.1c1.3-4.8,5.4-8,10.4-8
		c4.6,0,9.2,0,13.8,0c4.2,0,7.2,3.6,6.4,7.8c-2.3,12.8-4.6,25.6-6.8,38.4c-0.6,3.3-1.1,6.7-1.9,10c-1.1,4.8-5.3,8.1-10.3,8.1
		C82.2,119.9,70.3,119.9,58.4,119.9z M58.3,115.6c11.7,0,23.4,0,35.1,0c3.9,0,6.4-2.1,7-5.9c0.4-2.7,0.9-5.3,1.4-8
		c2.3-12.9,4.6-25.8,6.9-38.7c0.3-1.9-0.5-3-2.4-3c-4.5,0-9-0.1-13.5,0c-3,0-5.3,1.9-6.1,4.8c-0.4,1.4-0.7,2.8-1.1,4.3
		c-1.3,4.8-5.4,8-10.4,8c-11.2,0-22.4,0-33.6,0c-5,0-9.1-3.2-10.4-8c-0.4-1.4-0.7-2.9-1.1-4.3c-0.8-2.8-3.1-4.8-6-4.8
		c-4.6-0.1-9.2,0-13.8,0c-1.7,0-2.6,1.1-2.3,2.8c2.8,15.5,5.6,31.1,8.3,46.6c0.8,4.3,3,6.2,7.4,6.2
		C35.3,115.6,46.8,115.6,58.3,115.6z"/>
	<path class="st0" d="M62.7,12.9c-2.9,0-5.6,0-8.5,0c0,0.5,0,1,0,1.6c0,17.7,0,35.4,0,53.1c0,0.4,0,0.9,0,1.3
		c-0.2,1.1-1.1,1.8-2.2,1.7c-1.1-0.1-1.8-0.7-2-1.8c-0.1-0.4,0-0.8,0-1.2c0-18.7,0-37.5,0-56.2c0-2.3,0.6-2.9,2.9-2.9
		c3.9,0,7.7,0,11.6,0c1.9,0,2.6,0.7,2.6,2.6c0,15.4,0,30.8,0,46.2c0,1.7-0.7,2.6-2.1,2.6c-1.4,0-2.1-0.9-2.1-2.6
		c0-14.2,0-28.5,0-42.7C62.7,14.1,62.7,13.6,62.7,12.9z"/>
	<path class="st0" d="M84.1,24.6c-2.8-0.3-5.5-0.5-8.3-0.8c-0.2,1.4-0.4,2.7-0.5,4.1c-0.7,7.8-1.5,15.7-2.2,23.6
		C72.5,57,72,62.6,71.4,68.2c-0.2,1.7-1.1,2.6-2.5,2.5c-1.3-0.2-2-1.3-1.9-3c0.6-6.1,1.2-12.1,1.8-18.2c0.6-6,1.2-12.1,1.8-18.1
		c0.3-3.1,0.6-6.2,0.9-9.3c0.2-2.1,0.9-2.9,2.9-2.7c4,0.3,8,0.7,11.9,1.1c1.7,0.2,2.4,1,2.2,2.7c-0.4,5.2-0.9,10.4-1.4,15.6
		c-0.5,5.2-1,10.4-1.6,15.6c-0.1,0.8-0.4,1.7-1,2.2c-0.5,0.4-1.6,0.5-2.2,0.1c-0.6-0.4-1.2-1.4-1.1-2c0.3-4.7,0.8-9.3,1.3-14
		c0.5-5,1-9.9,1.5-14.9C84.1,25.4,84.1,25,84.1,24.6z"/>
	<path class="st0" d="M41.3,25.9c-2.8,0.2-5.5,0.3-8.3,0.5c0.1,2.6,0.3,5.2,0.4,7.7c0.3,5.2,0.6,10.4,1,15.6
		c0.1,1.4,0.2,2.8,0.2,4.1c0,1.4-0.7,2.3-1.9,2.4c-1.3,0.1-2.2-0.6-2.3-2.1c-0.3-3.5-0.5-7-0.7-10.5c-0.4-5.6-0.7-11.2-1-16.8
		c-0.3-4.1,0-4.5,4-4.7c3.4-0.2,6.8-0.4,10.3-0.6c2-0.1,2.7,0.6,2.8,2.5c0.7,11.9,1.4,23.8,2.1,35.6c0,0.8,0.1,1.6,0.1,2.4
		c0,1.3-0.8,2.2-2,2.2c-1.3,0.1-2.2-0.7-2.3-2.1c-0.2-2.9-0.4-5.9-0.5-8.8c-0.5-8.9-1-17.7-1.5-26.6C41.4,26.6,41.4,26.3,41.3,25.9z
		"/>
	<path class="st0" d="M20.1,21.7c-2.8,0.4-5.6,0.7-8.4,1.1c0.8,6.1,1.5,12.1,2.2,18.1c0.4,3.2,0.8,6.4,1.2,9.5
		c0.1,0.7,0.1,1.7-0.4,2.1c-0.5,0.5-1.5,1-2.1,0.8c-0.7-0.2-1.5-1.1-1.6-1.8c-0.6-3.6-1-7.1-1.4-10.7c-0.8-6.2-1.5-12.4-2.3-18.5
		c-0.4-2.7,0.2-3.5,2.8-3.9c3.6-0.5,7.2-0.9,10.8-1.3c2.3-0.3,3,0.4,3.3,2.7c1,8.3,2.1,16.6,3.1,24.9c0.3,2,0.5,4.1,0.7,6.1
		c0.2,1.5-0.6,2.7-1.9,2.9C25,53.9,24,53,23.8,51.6c-0.3-2.3-0.6-4.7-0.9-7c-0.8-6.2-1.5-12.5-2.3-18.7
		C20.4,24.5,20.3,23.1,20.1,21.7z"/>
	<path class="st0" d="M105.1,22.8c-2.8-0.4-5.6-0.7-8.4-1.1c-0.4,3.2-0.8,6.3-1.2,9.5c-0.8,6.8-1.6,13.5-2.5,20.3
		c-0.2,1.5-1.2,2.4-2.4,2.3c-1.3-0.2-2.1-1.3-1.9-2.9c0.9-7.7,1.9-15.4,2.8-23.1c0.4-2.9,0.7-5.7,1.1-8.6c0.2-1.6,1.2-2.2,3-2
		c3.1,0.4,6.3,0.8,9.4,1.2c0.8,0.1,1.7,0.2,2.5,0.3c1.7,0.3,2.3,1,2.1,2.8c-0.2,2.5-0.6,4.9-0.9,7.4c-0.8,6.2-1.5,12.4-2.3,18.5
		c-0.2,1.4-0.3,2.8-0.5,4.2c-0.2,1.2-1.1,2-2.3,1.9c-1.2-0.1-2-1-1.9-2.3c0.3-3.4,0.8-6.8,1.2-10.2C103.6,35,104.4,28.9,105.1,22.8z
		"/>
	<path class="st0" d="M37.1,4.5c-2.9,0.2-5.5,0.3-8.4,0.5c0.2,2.7,0.3,5.4,0.5,8c0.1,1.3,0.2,2.7,0.2,4c0,1.4-0.8,2.3-2,2.3
		c-1.2,0-2.2-0.8-2.3-2.1c-0.3-4.6-0.6-9.2-0.8-13.7c-0.1-1.8,0.6-2.5,2.4-2.6c4-0.3,8-0.5,12-0.8c1.9-0.1,2.6,0.6,2.7,2.6
		c0.2,3.6,0.5,7.1,0.7,10.7c0,0.6,0.1,1.2,0.1,1.7c-0.1,1.2-0.9,2-2,2.1c-1.2,0.1-2.2-0.6-2.3-1.9c-0.2-2.5-0.3-5-0.5-7.5
		C37.3,6.7,37.2,5.7,37.1,4.5z"/>
	<path class="st0" d="M90.2,5.4c-2.9-0.3-5.6-0.6-8.4-0.8c-0.2,2.4-0.5,4.7-0.7,7c-0.1,1.2-0.2,2.3-0.3,3.5
		c-0.2,1.5-1.2,2.3-2.6,2.1c-1.2-0.2-1.9-1.3-1.8-2.7c0.4-4,0.8-8.1,1.2-12.1c0.2-1.7,0.9-2.4,2.6-2.3c4.1,0.3,8.2,0.7,12.3,1.2
		c1.6,0.2,2.3,1,2.1,2.7c-0.2,3-0.5,6-0.8,9c-0.1,1.4-1.3,2.3-2.5,2.1c-1.2-0.2-2-1.2-1.8-2.7C89.8,10,90,7.8,90.2,5.4z"/>
</g>
</svg>
