<?xml version="1.0" encoding="utf-8"?>
<!-- Generator: Adobe Illustrator 26.1.0, SVG Export Plug-In . SVG Version: 6.00 Build 0)  -->
<svg version="1.1" id="Capa_1" xmlns="http://www.w3.org/2000/svg" xmlns:xlink="http://www.w3.org/1999/xlink" x="0px" y="0px"
	 viewBox="0 0 120 120" style="enable-background:new 0 0 120 120;" xml:space="preserve">
<style type="text/css">
	.st0{fill:#FFFFFF;}
</style>
<g>
	<path class="st0" d="M120,64.2c-0.3,2.1-0.6,4.2-0.9,6.3c-2.4,13.3-8.7,24.5-18.6,33.7c-8.7,7.9-18.8,13-30.4,14.8
		c-18.6,2.9-35.3-1.7-49.6-14.1C10.1,96,3.6,84.8,1.1,71.4c-3.3-18.3,0.7-34.9,12.5-49.3c9.1-11.1,20.9-18,35-20.8
		c2-0.4,4-0.5,6-0.8c0.3,0,0.6-0.1,0.9-0.2c2.9,0,5.8,0,8.7,0c1,0.1,2.1,0.3,3.1,0.5c1.4,0.2,2.2,1.3,2,2.6c-0.2,1.2-1.2,2.1-2.6,2
		c-2.1-0.1-4.1-0.4-6.2-0.4c-25.8-0.4-49,17.9-54.5,43c-5.5,25.2,6.6,50.4,30,61.7c8.7,4.2,18,6,27.7,5.3
		c22.7-1.5,42.6-17.1,49.1-38.8c5-16.8,2.5-32.6-7.2-47.2c-0.3-0.5-0.7-1-1.3-1.4c0,0.7,0,1.4,0,2.2c-0.1,1.4-1,2.3-2.3,2.2
		c-1.3,0-2.3-1-2.3-2.3c0-3,0-6,0-9c0-1.3,1-2.2,2.3-2.3c3,0,5.9,0,8.9,0c1.4,0,2.3,1,2.3,2.4c0,1.4-1,2.3-2.4,2.3
		c-1.1,0-2.2,0-3.3,0c0,0,0,0.1,0,0c1.6,2.6,3.4,5,4.9,7.7c4.2,7.4,6.7,15.4,7.4,24c0,0.3,0.1,0.7,0.2,1C120,58.6,120,61.4,120,64.2
		z"/>
	<path class="st0" d="M59.3,99.9c20.1-0.1,36.3-13.6,40-32.5c4.1-21.1-9.9-42-30.9-46.5c-10.3-2.2-20-0.5-29,4.9
		c-0.3,0.2-0.5,0.3-0.8,0.5c-1.2,0.6-2.5,0.2-3.2-0.9c-0.6-1.1-0.4-2.5,0.8-3.2c1.1-0.7,2.3-1.4,3.4-2c25.9-13.1,56.9,1.1,63.9,29.2
		c6.1,24.5-9.9,49.4-34.6,54.3C44.3,108.5,21,93,16.1,68.4C13.8,57,16,46.3,22,36.5c0.9-1.4,2.1-1.8,3.4-1.1
		c1.2,0.7,1.5,2.1,0.7,3.5c-3.3,5.3-5.3,11-5.8,17.2c-0.9,11.1,2,21.1,9.2,29.6c6.5,7.7,14.8,12.2,24.7,13.7
		C56.1,99.8,58.1,99.8,59.3,99.9z"/>
	<path class="st0" d="M60,68.1c-5.6,0-9.5-5.6-7.5-10.9c0.3-0.9,0.2-1.3-0.4-1.9c-2.3-2.2-4.5-4.4-6.7-6.7C44.1,47.4,44,46,45,45
		c1-1,2.5-0.9,3.7,0.4c2.3,2.3,4.6,4.6,6.9,6.9c0.5,0.5,0.8,0.6,1.5,0.3c1.9-0.8,4-0.8,5.9,0c0.7,0.3,1.1,0.1,1.6-0.4
		c5-5,10-10,15-15c0.7-0.7,1.5-1.2,2.5-0.9c1,0.3,1.6,0.9,1.8,1.8c0.3,1.1-0.3,1.9-1,2.6c-4.8,4.8-9.6,9.6-14.5,14.4
		c-0.7,0.7-1,1.2-0.6,2.4C69.5,62.6,65.5,68.1,60,68.1z M56.7,59.9c0,1.9,1.4,3.4,3.2,3.4c1.9,0,3.4-1.4,3.4-3.2
		c0-1.9-1.4-3.4-3.2-3.4C58.2,56.7,56.7,58,56.7,59.9z"/>
	<path class="st0" d="M62.4,28.2c0,0.5,0,1.1,0,1.6c-0.1,1.3-1,2.2-2.3,2.2c-1.3,0-2.3-0.8-2.4-2.1c-0.1-1.1-0.1-2.2,0-3.3
		c0.1-1.3,1.1-2.2,2.4-2.2c1.3,0,2.2,0.9,2.2,2.2C62.4,27.1,62.4,27.6,62.4,28.2z"/>
	<path class="st0" d="M28.1,57.6c0.5,0,1,0,1.5,0c1.3,0.1,2.2,1,2.3,2.2c0,1.3-0.8,2.4-2.1,2.5c-1.1,0.1-2.2,0.1-3.3,0
		c-1.3-0.1-2.2-1.1-2.1-2.4c0-1.2,0.9-2.1,2.2-2.2C27.1,57.6,27.6,57.6,28.1,57.6z"/>
	<path class="st0" d="M91.8,62.3c-0.5,0-0.9,0-1.4,0c-1.4-0.1-2.3-1-2.3-2.3c0-1.3,0.9-2.3,2.2-2.4c1.1-0.1,2.1-0.1,3.2,0
		c1.3,0.1,2.2,1.1,2.2,2.4c0,1.3-0.9,2.1-2.2,2.2C92.9,62.4,92.3,62.3,91.8,62.3z"/>
	<path class="st0" d="M62.3,91.8c0,0.5,0,1,0,1.5c-0.1,1.3-1.1,2.2-2.4,2.2c-1.3,0-2.3-0.9-2.3-2.2c0-1,0-2,0-3
		c0.1-1.4,1-2.2,2.3-2.2c1.3,0,2.3,0.9,2.4,2.2C62.4,90.8,62.3,91.3,62.3,91.8z"/>
	<path class="st0" d="M32.4,30.1c0,1.4-1,2.3-2.4,2.3c-1.3,0-2.3-1-2.3-2.3c0-1.3,1-2.4,2.3-2.4C31.3,27.7,32.4,28.8,32.4,30.1z"/>
	<path class="st0" d="M76.3,2.5c1.4,0,2.3,1,2.3,2.4c0,1.3-1,2.3-2.3,2.3c-1.3,0-2.4-1.1-2.4-2.4C73.9,3.5,74.9,2.5,76.3,2.5z"/>
</g>
</svg>
