<?xml version="1.0" encoding="utf-8"?>
<!-- Generator: Adobe Illustrator 26.1.0, SVG Export Plug-In . SVG Version: 6.00 Build 0)  -->
<svg version="1.1" id="Capa_1" xmlns="http://www.w3.org/2000/svg" xmlns:xlink="http://www.w3.org/1999/xlink" x="0px" y="0px"
	 viewBox="0 0 120 120" style="enable-background:new 0 0 120 120;" xml:space="preserve">
<style type="text/css">
	.st0{fill:#FFFFFF;}
</style>
<path class="st0" d="M48.2,120c-1.7-0.4-3.4-0.7-5-1.2c-10-3.1-17.1-11.9-18-22.3c-0.8-10.3,3.3-18.3,11.8-24c0.6-0.3,1-1,0.9-1.7
	c0-19.1,0-38.2,0-57.4c0-6.9,4.2-12,10.9-13.3S62.8,4,63.7,10.8c0.1,1.1,0.2,2.2,0.2,3.4c0,18.8,0,37.7,0,56.6
	c-0.1,0.8,0.3,1.5,1,1.9c7.7,5.2,11.8,12.5,11.7,21.9c-0.1,12.5-9.2,23.2-21.5,25.2c-0.5,0.1-1,0.2-1.5,0.3H48.2z M59.3,42.7
	L59.3,42.7c0-10,0-19.9,0-29.9c0.1-3.2-1.9-6.2-4.9-7.4c-2.9-1.4-6.3-1-8.8,1.1c-2.4,1.9-3.2,4.4-3.2,7.3c0,19.6,0,39.1,0,58.7
	c0.1,1.4-0.6,2.7-1.9,3.3C32.9,80,28.7,88.5,29.9,97.2c1.6,11.6,12.4,19.7,24,18c11.6-1.6,19.7-12.4,18-24
	C71,84.7,67,78.9,61.2,75.7c-1.2-0.6-2-1.8-1.9-3.2C59.3,62.6,59.3,52.6,59.3,42.7z"/>
<path class="st0" d="M83.4,61H92c1.6,0,2.7,0.9,2.8,2.2c0.1,1.3-1.1,2.4-2.7,2.4c-5.8,0-11.5,0-17.3,0c-1.7,0-2.8-0.9-2.8-2.3
	s1.1-2.2,2.8-2.2H83.4z"/>
<path class="st0" d="M83.4,39.6c2.9,0,5.9,0,8.8,0c1.6,0,2.6,0.9,2.6,2.2c0,1.3-1,2.3-2.3,2.3c-0.1,0-0.2,0-0.3,0
	c-5.9,0-11.8,0-17.7,0c-1.2,0.2-2.4-0.7-2.6-1.9s0.7-2.4,1.9-2.6c0.2,0,0.5,0,0.7,0C77.5,39.6,80.5,39.6,83.4,39.6z"/>
<path class="st0" d="M83.3,22.8h-8.6c-1.3,0.2-2.4-0.8-2.6-2.1c0-0.1,0-0.1,0-0.2c0-1.3,1-2.3,2.3-2.3c0.1,0,0.2,0,0.3,0
	c5.9,0,11.8,0,17.8,0c1.3-0.1,2.4,0.8,2.5,2.1c0,0.1,0,0.2,0,0.2c-0.1,1.3-1.3,2.3-2.6,2.2c0,0,0,0,0,0H83.3z"/>
<path class="st0" d="M78.9,54.9c-1.4,0-2.9,0-4.3,0C73.2,55,72.1,54,72,52.7c0,0,0,0,0,0c0-1.3,0.9-2.3,2.2-2.4c0.1,0,0.1,0,0.2,0
	c3-0.1,5.9-0.1,8.9,0c1.3-0.1,2.4,0.9,2.4,2.2c0,0,0,0.1,0,0.1c-0.1,1.3-1.2,2.3-2.5,2.2c0,0,0,0,0,0C81.8,54.9,80.3,54.9,78.9,54.9
	z"/>
<path class="st0" d="M78.9,28.9c1.4,0,2.8,0,4.2,0c1.3-0.1,2.4,0.9,2.5,2.2c0.1,1.3-0.9,2.4-2.2,2.5c-0.1,0-0.2,0-0.3,0
	c-2.9,0-5.9,0-8.8,0c-1.3,0.1-2.4-0.9-2.4-2.2c0,0,0-0.1,0-0.1c0-1.3,1.1-2.3,2.4-2.3c0,0,0.1,0,0.1,0C76,28.9,77.4,28.9,78.9,28.9z
	"/>
<path class="st0" d="M53.2,81.1c0.6,0.2,1.2,0.3,1.8,0.5c7,2.2,10.8,9.7,8.6,16.7c-1.5,4.8-5.7,8.4-10.8,9.1c-7.2,1-13.9-4-15-11.3
	c-0.9-6.6,3.2-12.8,9.6-14.6c1-0.3,1.2-0.6,1.2-1.6c0-19.9,0-39.8,0-59.7c0-0.5,0-1.1,0.1-1.6c0.1-1.1,1.2-2,2.3-1.9
	c1.1,0,2,0.9,2.1,2c0,0.4,0,0.8,0,1.2V81.1z M59.6,94.2c0-4.8-3.8-8.7-8.6-8.7c0,0,0,0-0.1,0c-4.8,0-8.7,3.9-8.7,8.7
	c0,4.8,3.9,8.7,8.7,8.7c0,0,0,0,0,0c4.8,0,8.7-3.8,8.7-8.6C59.6,94.3,59.6,94.3,59.6,94.2z"/>
</svg>
