<?xml version="1.0" encoding="utf-8"?>
<!-- Generator: Adobe Illustrator 26.1.0, SVG Export Plug-In . SVG Version: 6.00 Build 0)  -->
<svg version="1.1" id="Capa_1" xmlns="http://www.w3.org/2000/svg" xmlns:xlink="http://www.w3.org/1999/xlink" x="0px" y="0px"
	 viewBox="0 0 120 120" style="enable-background:new 0 0 120 120;" xml:space="preserve">
<style type="text/css">
	.st0{fill:#FFFFFF;}
</style>
<g>
	<path class="st0" d="M92,96.7c3.1,3.5,6.2,6.8,9.2,10.2c2,2.3,2.1,4.7,0.3,6.4s-4.4,1.4-6.5-0.9c-3.1-3.5-6.3-7-9.5-10.5
		c-16.9,10.1-33.8,10.2-50.9,0l-7.8,8.6c-0.8,0.9-1.5,1.8-2.4,2.6c-1.6,1.7-4.2,1.8-5.9,0.3c-1.7-1.5-1.8-4.1-0.3-5.8c0,0,0,0,0,0
		l0.1-0.1c2.9-3.3,5.9-6.6,8.9-9.9c0.3-0.3,0.5-0.6,0.7-0.9C6.1,74.3,13.2,43.6,30.2,29c16.7-14.2,43.1-14.2,59.6,0.1
		C107.3,44.2,113.3,75,92,96.7z M60,101.2c20.7-0.3,37.2-17.3,36.9-38C96.6,43,80.3,26.7,60.1,26.4c-20.5-0.2-37.6,17-37.6,37.5
		C22.7,84.5,39.4,101.1,60,101.2L60,101.2z"/>
	<path class="st0" d="M101.3,5.6c6.3,0.2,12.8,4.1,16.5,11.9s2.7,15.2-2.6,22c-2.9,3.8-5.3,3.9-8.6,0.6L85,18.3
		c-3-3-2.9-5.1,0.3-7.8C89.2,7.2,93.8,5.6,101.3,5.6z M110.4,31.6c2.3-4.9,1.1-10.6-2.8-14.3c-4-3.6-9.8-4.5-13.6-2.1L110.4,31.6z"
		/>
	<path class="st0" d="M20.9,5.6c5.3-0.1,10.4,1.9,14.3,5.4c2.5,2.3,2.6,4.5,0.2,6.8c-7.6,7.7-15.3,15.3-23,23
		c-2.2,2.2-4.5,2.1-6.7-0.1c-7.9-8.3-7.6-21.5,0.8-29.4C10.4,7.6,15.5,5.5,20.9,5.6z M9.4,31.3l16.4-16.4c-4.1-2.1-9.7-1.2-13.5,2.3
		C8.4,20.8,7.3,26.5,9.4,31.3z"/>
	<path class="st0" d="M61.8,62.4h10c3,0,4.9,1.6,5,4.1c0.1,2.5-1.9,4.3-5,4.3H58.3c-3.3,0-4.8-1.6-4.8-4.9V47.2c0-3,1.6-4.9,4.1-4.9
		s4.1,1.9,4.2,4.9c0.1,4.7,0,9.4,0,14C61.7,61.6,61.8,62,61.8,62.4z"/>
</g>
</svg>
